<svg width="409" height="84" viewBox="0 0 409 84" fill="none" xmlns="http://www.w3.org/2000/svg">
<path d="M25.568 83.48C21.856 83.48 17.664 83.16 12.992 82.52C10.432 82.2 8.672 81.528 7.712 80.504C6.752 79.48 6.336 77.816 6.464 75.512C6.912 69.176 7.968 61.368 9.632 52.088C11.296 42.744 13.312 33.752 15.68 25.112C16.128 23.512 17.024 22.392 18.368 21.752C19.712 21.112 21.472 20.792 23.648 20.792C27.552 20.792 29.504 21.88 29.504 24.056C29.504 24.952 29.312 25.976 28.928 27.128C27.264 32.248 25.6 39.128 23.936 47.768C22.272 56.344 21.088 64.536 20.384 72.344C22.304 72.536 24.48 72.632 26.912 72.632C38.112 72.632 46.464 69.24 51.968 62.456C57.536 55.672 60.32 46.616 60.32 35.288C60.32 27.672 58.144 21.784 53.792 17.624C49.44 13.464 43.296 11.384 35.36 11.384C30.24 11.384 25.152 12.184 20.096 13.784C15.104 15.384 10.592 17.496 6.56 20.12C5.728 20.696 4.832 20.984 3.872 20.984C2.784 20.984 1.92 20.536 1.28 19.64C0.64 18.68 0.32 17.528 0.32 16.184C0.32 14.648 0.576 13.4 1.088 12.44C1.6 11.416 2.464 10.488 3.68 9.65599C8.096 6.64799 13.28 4.376 19.232 2.84C25.184 1.24 30.912 0.439999 36.416 0.439999C44.224 0.439999 50.976 1.816 56.672 4.568C62.368 7.256 66.752 11.224 69.824 16.472C72.896 21.72 74.432 28.056 74.432 35.48C74.432 45.144 72.512 53.592 68.672 60.824C64.832 67.992 59.232 73.56 51.872 77.528C44.512 81.496 35.744 83.48 25.568 83.48ZM105.05 83.48C100.634 83.48 96.634 82.392 93.05 80.216C89.53 78.04 86.746 74.904 84.698 70.808C82.65 66.648 81.626 61.752 81.626 56.12C81.626 46.392 83.706 37.4 87.866 29.144C92.026 20.824 98.17 14.168 106.298 9.17599C114.426 4.12 124.186 1.592 135.578 1.592C138.522 1.592 141.658 1.816 144.986 2.264C148.378 2.712 151.45 3.384 154.202 4.27999C155.994 4.792 156.89 6.072 156.89 8.12C156.89 9.784 156.25 11.352 154.97 12.824C153.754 14.296 152.314 15.032 150.65 15.032C150.138 15.032 149.754 15 149.498 14.936C146.17 14.168 143.322 13.624 140.954 13.304C138.586 12.92 136.09 12.728 133.466 12.728C125.338 12.728 118.426 14.712 112.73 18.68C107.034 22.584 102.778 27.768 99.962 34.232C97.146 40.696 95.738 47.672 95.738 55.16C95.738 60.6 96.794 64.824 98.906 67.832C101.082 70.776 103.898 72.248 107.354 72.248C111.258 72.248 114.682 70.648 117.626 67.448C120.57 64.248 123.258 59.064 125.69 51.896C128.122 44.728 130.522 35 132.89 22.712C133.274 20.92 134.042 19.704 135.194 19.064C136.346 18.424 137.882 18.104 139.802 18.104C144.346 18.104 146.618 19.576 146.618 22.52C146.618 23.032 146.522 23.672 146.33 24.44C144.666 30.648 143.13 37.528 141.722 45.08C140.378 52.568 139.706 58.264 139.706 62.168C139.706 65.624 140.218 68.152 141.242 69.752C142.266 71.288 143.834 72.056 145.946 72.056C147.994 72.056 149.946 71.384 151.802 70.04C153.658 68.632 155.994 66.264 158.81 62.936C159.578 62.04 160.442 61.592 161.402 61.592C162.234 61.592 162.874 61.976 163.322 62.744C163.834 63.512 164.09 64.568 164.09 65.912C164.09 68.408 163.482 70.392 162.266 71.864C159.13 75.64 156.058 78.52 153.05 80.504C150.042 82.488 146.362 83.48 142.01 83.48C137.53 83.48 133.914 82.2 131.162 79.64C128.41 77.016 126.682 73.336 125.978 68.6C121.242 78.52 114.266 83.48 105.05 83.48ZM236.871 3.41599C238.663 3.672 239.879 4.216 240.519 5.048C241.223 5.88 241.575 6.968 241.575 8.31199C241.575 12.728 239.207 14.776 234.471 14.456L231.111 14.168C227.335 13.848 223.559 13.592 219.783 13.4C216.071 13.208 212.167 13.112 208.071 13.112H203.751C202.983 22.584 202.183 31.224 201.351 39.032L217.863 38.744C220.231 38.744 221.799 39.16 222.567 39.992C223.399 40.824 223.815 41.944 223.815 43.352C223.815 45.528 223.175 47.256 221.895 48.536C220.615 49.752 218.791 50.36 216.423 50.36H200.007L199.431 54.488C198.087 65.048 195.207 72.568 190.791 77.048C186.439 81.528 180.423 83.768 172.743 83.768C168.391 83.768 164.391 82.84 160.743 80.984C157.095 79.064 154.407 76.76 152.679 74.072C151.975 72.984 151.623 71.672 151.623 70.136C151.623 68.6 151.975 67.256 152.679 66.104C153.447 64.952 154.375 64.376 155.463 64.376C156.231 64.376 156.967 64.632 157.671 65.144C158.439 65.656 159.399 66.648 160.551 68.12C163.623 72.152 167.431 74.168 171.975 74.168C175.623 74.168 178.663 72.696 181.095 69.752C183.591 66.744 185.191 62.04 185.895 55.64L186.471 50.36H181.863C180.391 50.36 179.111 49.944 178.023 49.112C176.999 48.28 176.487 47.096 176.487 45.56C176.487 43.576 176.999 42.072 178.023 41.048C179.047 39.96 180.551 39.416 182.535 39.416C184.327 39.416 186.087 39.384 187.815 39.32C188.583 32.28 189.415 23.736 190.311 13.688C183.399 14.328 178.535 15.448 175.719 17.048C172.903 18.648 171.495 21.016 171.495 24.152C171.495 26.328 172.135 28.408 173.415 30.392C173.799 30.968 173.991 31.544 173.991 32.12C173.991 33.272 173.351 34.296 172.071 35.192C170.791 36.024 169.351 36.44 167.751 36.44C166.023 36.44 164.551 35.928 163.335 34.904C162.567 34.264 161.831 32.952 161.127 30.968C160.423 28.984 160.071 26.776 160.071 24.344C160.071 16.408 164.135 10.648 172.263 7.064C180.455 3.48 192.391 1.68799 208.071 1.68799C218.951 1.68799 228.551 2.26399 236.871 3.41599ZM242.335 83.48C239.967 83.48 238.271 82.968 237.247 81.944C236.223 80.856 235.711 78.84 235.711 75.896C235.711 73.912 235.903 71.512 236.287 68.696C236.671 65.88 237.343 61.624 238.303 55.928C238.431 55.16 238.943 52.056 239.839 46.616C240.735 41.112 241.535 35.352 242.239 29.336C242.879 24.216 243.199 20.376 243.199 17.816C243.199 14.936 242.143 13.496 240.031 13.496C238.431 13.496 236.415 14.36 233.983 16.088C231.615 17.752 229.055 20.44 226.303 24.152C225.407 25.368 224.415 25.976 223.327 25.976C222.431 25.976 221.631 25.56 220.927 24.728C220.287 23.832 219.966 22.84 219.966 21.752C219.966 20.664 220.159 19.64 220.543 18.68C220.927 17.656 221.631 16.44 222.655 15.032C225.791 10.744 229.279 7.448 233.119 5.144C236.959 2.776 240.991 1.592 245.215 1.592C248.735 1.592 251.359 2.68 253.087 4.856C254.879 7.032 255.775 10.2 255.775 14.36C255.775 18.072 255.263 23.448 254.239 30.488C257.439 21.016 261.503 13.848 266.431 8.984C271.359 4.056 277.151 1.592 283.807 1.592C289.055 1.592 292.991 3.09599 295.615 6.10399C298.303 9.04799 299.647 13.016 299.647 18.008C299.647 20.824 299.231 24.248 298.399 28.28L292.543 55.736C291.903 58.936 291.583 61.688 291.583 63.992C291.583 66.68 292.191 68.696 293.407 70.04C294.687 71.384 296.447 72.056 298.687 72.056C300.799 72.056 302.847 71.352 304.831 69.944C306.879 68.536 309.279 66.2 312.031 62.936C312.799 62.04 313.663 61.592 314.623 61.592C315.455 61.592 316.095 61.976 316.542 62.744C317.055 63.512 317.311 64.568 317.311 65.912C317.311 68.408 316.703 70.392 315.487 71.864C312.159 75.896 308.863 78.84 305.599 80.696C302.335 82.552 298.911 83.48 295.327 83.48C289.887 83.48 285.631 81.88 282.559 78.68C279.487 75.416 277.951 71.064 277.951 65.624C277.951 63.512 278.111 61.208 278.431 58.712C278.815 56.216 279.423 53.048 280.255 49.208L284.095 31.64C284.223 31.064 284.447 30.04 284.767 28.568C285.087 27.096 285.343 25.72 285.535 24.44C285.727 23.096 285.823 21.784 285.823 20.504C285.823 18.456 285.247 16.824 284.095 15.608C282.943 14.392 281.311 13.784 279.199 13.784C275.359 13.784 271.519 15.832 267.679 19.928C263.839 24.024 260.287 30.648 257.023 39.8C253.759 48.888 251.199 60.536 249.343 74.744C248.895 78.008 248.223 80.28 247.327 81.56C246.495 82.84 244.831 83.48 242.335 83.48ZM377.386 65.528C378.346 65.144 379.146 64.952 379.786 64.952C380.81 64.952 381.578 65.336 382.09 66.104C382.602 66.872 382.858 67.864 382.858 69.08C382.858 71 382.378 72.632 381.418 73.976C380.522 75.32 378.954 76.536 376.714 77.624C372.938 79.416 368.042 80.856 362.026 81.944C356.01 82.968 350.09 83.48 344.266 83.48C336.202 83.48 329.45 82.584 324.01 80.792C318.57 78.936 314.506 76.408 311.818 73.208C309.194 70.008 307.882 66.392 307.882 62.36C307.882 56.856 309.642 52.184 313.162 48.344C316.746 44.44 321.994 41.624 328.906 39.896C325.13 38.808 322.218 36.888 320.17 34.136C318.186 31.384 317.194 28.312 317.194 24.92C317.194 20.312 318.634 16.248 321.514 12.728C324.458 9.144 328.394 6.392 333.322 4.472C338.25 2.552 343.658 1.592 349.546 1.592C357.482 1.592 363.434 3.32 367.402 6.776C371.37 10.168 373.354 14.584 373.354 20.024C373.354 23.8 372.65 26.872 371.242 29.24C369.898 31.544 367.946 32.696 365.386 32.696C363.594 32.696 362.186 32.312 361.162 31.544C360.138 30.712 359.626 29.496 359.626 27.896C359.626 26.808 359.786 25.624 360.106 24.344C360.426 22.232 360.586 20.792 360.586 20.024C360.586 17.72 359.722 15.864 357.994 14.456C356.266 12.984 353.386 12.248 349.354 12.248C343.914 12.248 339.562 13.4 336.298 15.704C333.034 18.008 331.402 21.112 331.402 25.016C331.402 28.024 332.618 30.52 335.05 32.504C337.546 34.424 341.578 35.48 347.146 35.672C348.554 35.736 349.546 36.056 350.122 36.632C350.698 37.208 350.986 38.168 350.986 39.512C350.986 43.736 349.066 45.88 345.226 45.944C339.914 46.072 335.498 46.808 331.978 48.152C328.522 49.496 325.994 51.224 324.394 53.336C322.858 55.384 322.09 57.592 322.09 59.96C322.09 63.928 323.946 66.936 327.658 68.984C331.37 70.968 337.258 71.96 345.322 71.96C350.634 71.96 356.234 71.352 362.122 70.136C368.074 68.856 373.162 67.32 377.386 65.528ZM399.201 83.48C396.385 83.48 394.241 82.712 392.769 81.176C391.361 79.64 390.657 77.624 390.657 75.128C390.657 72.248 391.457 69.944 393.057 68.216C394.721 66.488 397.025 65.624 399.969 65.624C402.785 65.624 404.897 66.328 406.305 67.736C407.777 69.08 408.513 71.096 408.513 73.784C408.513 76.728 407.681 79.096 406.017 80.888C404.353 82.616 402.081 83.48 399.201 83.48Z" fill="white"/>
</svg>
